<svg width="125" height="125" viewBox="0 0 125 125" fill="none" xmlns="http://www.w3.org/2000/svg">
<circle cx="62.5" cy="62.5" r="62.5" fill="black"/>
<path d="M25.3308 71C25.1928 71 25.0778 70.954 24.9858 70.862C24.8938 70.77 24.8478 70.655 24.8478 70.517V56.901C24.8478 56.763 24.8938 56.648 24.9858 56.556C25.0778 56.464 25.1928 56.418 25.3308 56.418C25.4688 56.418 25.5838 56.464 25.6758 56.556C25.7678 56.648 25.8138 56.763 25.8138 56.901V70.517C25.8138 70.655 25.7678 70.77 25.6758 70.862C25.5838 70.954 25.4688 71 25.3308 71ZM30.4295 71C30.1075 71 29.9465 70.839 29.9465 70.517V56.924C29.9465 56.602 30.1075 56.441 30.4295 56.441C30.6058 56.441 30.7745 56.533 30.9355 56.717L40.8485 69.436H40.6415V56.924C40.6415 56.602 40.8025 56.441 41.1245 56.441C41.4465 56.441 41.6075 56.602 41.6075 56.924V70.517C41.6075 70.839 41.4465 71 41.1245 71C40.9481 71 40.7795 70.908 40.6185 70.724L30.7055 58.005H30.9125V70.517C30.9125 70.839 30.7515 71 30.4295 71ZM49.5085 70.977C48.1208 70.977 47.105 70.6588 46.461 70.0225C45.8247 69.3862 45.5065 68.378 45.5065 66.998C45.5065 66.86 45.5525 66.745 45.6445 66.653C45.7365 66.561 45.8515 66.515 45.9895 66.515C46.1275 66.515 46.2425 66.561 46.3345 66.653C46.4265 66.745 46.4725 66.86 46.4725 66.998C46.4725 68.1097 46.6948 68.8917 47.1395 69.344C47.5918 69.7887 48.3815 70.011 49.5085 70.011H52.8205C53.9475 70.011 54.7333 69.7887 55.178 69.344C55.6303 68.8917 55.8565 68.1097 55.8565 66.998C55.8565 65.8787 55.6303 65.0967 55.178 64.652C54.7333 64.2073 53.9475 63.985 52.8205 63.985H49.5775C48.2588 63.985 47.2967 63.686 46.691 63.088C46.0853 62.4823 45.7825 61.524 45.7825 60.213C45.7825 58.902 46.0815 57.9475 46.6795 57.3495C47.2852 56.7438 48.2435 56.441 49.5545 56.441H52.9355C54.2465 56.441 55.201 56.74 55.799 57.338C56.4047 57.936 56.7075 58.8867 56.7075 60.19C56.7075 60.328 56.6615 60.443 56.5695 60.535C56.4775 60.627 56.3625 60.673 56.2245 60.673C56.0865 60.673 55.9715 60.627 55.8795 60.535C55.7875 60.443 55.7415 60.328 55.7415 60.19C55.7415 59.1627 55.5307 58.442 55.109 58.028C54.695 57.614 53.9705 57.407 52.9355 57.407H49.5545C48.5195 57.407 47.7912 57.6178 47.3695 58.0395C46.9555 58.4535 46.7485 59.178 46.7485 60.213C46.7485 61.248 46.9593 61.9763 47.381 62.398C47.8027 62.812 48.5348 63.019 49.5775 63.019H52.8205C54.2158 63.019 55.2317 63.3372 55.868 63.9735C56.5043 64.6098 56.8225 65.618 56.8225 66.998C56.8225 68.378 56.5043 69.3862 55.868 70.0225C55.2317 70.6588 54.2158 70.977 52.8205 70.977H49.5085ZM61.2234 71C60.9014 71 60.7404 70.839 60.7404 70.517V56.924C60.7404 56.602 60.9014 56.441 61.2234 56.441H66.6054C67.8857 56.441 68.8479 56.7668 69.4919 57.4185C70.1436 58.0625 70.4694 59.0247 70.4694 60.305V60.995C70.4694 62.2677 70.1436 63.2298 69.4919 63.8815C68.8479 64.5332 67.8857 64.859 66.6054 64.859H61.7064V70.517C61.7064 70.839 61.5454 71 61.2234 71ZM61.7064 63.893H66.6054C67.6097 63.893 68.3419 63.6592 68.8019 63.1915C69.2696 62.7238 69.5034 61.9917 69.5034 60.995V60.305C69.5034 59.3007 69.2696 58.5685 68.8019 58.1085C68.3419 57.6408 67.6097 57.407 66.6054 57.407H61.7064V63.893ZM73.7117 71C73.5737 71 73.4587 70.954 73.3667 70.862C73.2747 70.77 73.2287 70.655 73.2287 70.517V56.901C73.2287 56.763 73.2747 56.648 73.3667 56.556C73.4587 56.464 73.5737 56.418 73.7117 56.418C73.8497 56.418 73.9647 56.464 74.0567 56.556C74.1487 56.648 74.1947 56.763 74.1947 56.901V70.517C74.1947 70.655 74.1487 70.77 74.0567 70.862C73.9647 70.954 73.8497 71 73.7117 71ZM88.3553 71.023C88.2173 71.0997 88.0908 71.1265 87.9758 71.1035C87.8685 71.0805 87.7727 71.0077 87.6883 70.885L83.8473 64.859H79.2933V70.517C79.2933 70.839 79.1323 71 78.8103 71C78.4883 71 78.3273 70.839 78.3273 70.517V56.924C78.3273 56.602 78.4883 56.441 78.8103 56.441H84.1923C85.4727 56.441 86.4348 56.7668 87.0788 57.4185C87.7305 58.0625 88.0563 59.0247 88.0563 60.305V60.995C88.0563 62.1297 87.7957 63.019 87.2743 63.663C86.7607 64.2993 85.994 64.6827 84.9743 64.813L88.4933 70.356C88.6773 70.6397 88.6313 70.862 88.3553 71.023ZM79.2933 63.893H84.1923C85.1967 63.893 85.9288 63.6592 86.3888 63.1915C86.8565 62.7238 87.0903 61.9917 87.0903 60.995V60.305C87.0903 59.3007 86.8565 58.5685 86.3888 58.1085C85.9288 57.6408 85.1967 57.407 84.1923 57.407H79.2933V63.893ZM92.197 71C91.875 71 91.714 70.839 91.714 70.517V56.924C91.714 56.602 91.875 56.441 92.197 56.441H100.937C101.259 56.441 101.42 56.602 101.42 56.924C101.42 57.246 101.259 57.407 100.937 57.407H92.68V63.134H98.223C98.545 63.134 98.706 63.295 98.706 63.617C98.706 63.939 98.545 64.1 98.223 64.1H92.68V70.034H100.937C101.259 70.034 101.42 70.195 101.42 70.517C101.42 70.839 101.259 71 100.937 71H92.197Z" fill="white"/>
</svg>
